<svg width="231" height="61" viewBox="0 0 231 61" fill="none" xmlns="http://www.w3.org/2000/svg">
<path d="M5.95661 55.8546H0.603683L9.35175 10.9657H14.7047L13.7547 15.9029C16.6707 12.039 20.4789 10.1979 25.237 10.1979C29.2187 10.1979 32.1347 11.7418 33.9768 14.8956C35.1664 16.9762 35.7612 19.4118 35.7612 22.3262C35.7612 23.8701 35.6455 25.4801 35.282 27.2634C34.2742 32.374 32.1925 36.4773 29.1526 39.6312C26.1209 42.7851 22.6101 44.329 18.6202 44.329C13.8621 44.329 10.7726 42.4878 9.28566 38.6239L5.95661 55.8629V55.8546ZM30.1687 23.094C30.1687 17.744 27.6739 14.6562 23.0893 14.6562C17.439 14.6562 13.036 19.4118 11.5491 27.2634C11.2517 28.8073 11.07 30.2357 11.07 31.4823C11.07 36.7746 13.6308 39.8624 18.1494 39.8624C23.7997 39.8624 28.2026 35.1068 29.7474 27.2552C30.0448 25.7691 30.1604 24.3985 30.1604 23.094H30.1687Z" fill="white"/>
<path fill-rule="evenodd" clip-rule="evenodd" d="M25.237 10.6953C20.6321 10.6953 16.972 12.4654 14.1516 16.2025L12.8616 17.9118L14.1024 11.4631H9.76141L1.20719 55.3574H5.54764L9.12636 36.8256L9.74971 38.4454C10.4591 40.2889 11.5376 41.6217 12.9843 42.5004C14.4377 43.3832 16.3026 43.8317 18.6201 43.8317C22.4637 43.8317 25.8481 42.3512 28.794 39.2866L28.7945 39.2861C31.7595 36.2099 33.8022 32.197 34.794 27.1673L34.7946 27.1642C35.1502 25.4197 35.2637 23.8438 35.2637 22.3263C35.2637 19.4829 34.6845 17.1364 33.5462 15.1446C31.8042 12.1636 29.0641 10.6953 25.237 10.6953ZM5.95652 55.9105V56.352H0L8.9419 10.4684H15.3067L14.6025 14.1284C17.4328 11.1403 20.9753 9.70062 25.237 9.70062C29.3723 9.70062 32.4638 11.3194 34.4062 14.6449L34.4085 14.6489C35.6485 16.8177 36.2584 19.3418 36.2584 22.3263C36.2584 23.8963 36.1407 25.54 35.7695 27.3618C34.7455 32.5523 32.6249 36.7453 29.5106 39.9764C26.3932 43.2192 22.7562 44.8264 18.6201 44.8264C16.1795 44.8264 14.1206 44.3543 12.468 43.3505C11.2224 42.594 10.2301 41.5489 9.48383 40.2202L6.44481 55.9572L5.95652 55.9105ZM11.0605 27.17C12.5686 19.2084 17.0928 14.159 23.0892 14.159C25.501 14.159 27.4227 14.9766 28.7307 16.5512C30.0269 18.1116 30.6659 20.3499 30.6659 23.0941V23.5914H30.6521C30.6256 24.7768 30.5017 26.0195 30.2351 27.352C28.669 35.3108 24.1452 40.3598 18.1493 40.3598C15.7689 40.3598 13.8493 39.5412 12.5344 37.977C11.23 36.4253 10.5726 34.2018 10.5726 31.4824C10.5726 30.1917 10.7602 28.7292 11.0605 27.17ZM29.6637 22.5968C29.5906 20.2351 28.992 18.4224 27.9656 17.1867C26.88 15.8799 25.262 15.1536 23.0892 15.1536C17.7851 15.1536 13.5036 19.6149 12.0376 27.356L12.0373 27.3576C11.7429 28.886 11.5672 30.2799 11.5672 31.4824C11.5672 34.0552 12.1902 36.0217 13.2958 37.337C14.3909 38.6398 16.0111 39.3651 18.1493 39.3651C23.4538 39.3651 27.7358 34.9032 29.2593 27.1592L29.2596 27.1577C29.5501 25.7059 29.663 24.3682 29.663 23.0941V22.5968H29.6637Z" fill="white"/>
<path d="M50.9858 10.9659L44.6829 43.4871H39.3299L45.6328 10.9659H50.9858ZM53.0757 0.868591L51.7705 6.41675H46.4176L47.7228 0.868591H53.0757Z" fill="white"/>
<path fill-rule="evenodd" clip-rule="evenodd" d="M47.3286 0.371338H53.7034L52.1642 6.91414H45.7895L47.3286 0.371338ZM48.1164 1.36597L47.0452 5.9195H51.3764L52.4476 1.36597H48.1164ZM45.2224 10.4687H51.5885L45.0928 43.9844H38.7267L45.2224 10.4687ZM46.0428 11.4633L39.9326 42.9898H44.2724L50.3826 11.4633H46.0428Z" fill="white"/>
<path d="M72.315 26.7271L81.4761 43.4293H75.1732L68.1516 30.6487L56.2562 43.4293H49.9533L65.8386 26.4298L57.3301 10.9164H63.633L70.002 22.5081L80.8896 10.9164H87.1925L72.3232 26.7271H72.315Z" fill="white"/>
<path fill-rule="evenodd" clip-rule="evenodd" d="M56.4903 10.4189H63.9274L70.1084 21.6685L80.6746 10.4189H88.3431L72.928 26.81L82.3163 43.9265H74.8792L68.0472 31.4909L56.4729 43.9265H48.8081L65.2296 26.3531L56.4903 10.4189ZM72.1084 26.2296L86.0423 11.4136H81.1049L69.896 23.3474L63.339 11.4136H58.1703L66.448 26.5062L51.0989 42.9318H56.0399L68.2564 29.8062L75.4676 42.9318H80.6363L71.4752 26.2296H72.1084Z" fill="white"/>
<path d="M109.29 0.497253L119.285 30.2195L125.051 0.497253H135.641L127.257 43.834H114.766L104.771 14.1117L99.0051 43.834H88.4149L96.7995 0.497253H109.29Z" fill="white"/>
<path fill-rule="evenodd" clip-rule="evenodd" d="M96.3892 0H109.647L119.156 28.2749L124.641 0H136.244L127.667 44.3314H114.409L104.9 16.0565L99.4152 44.3314H87.8122L96.3892 0ZM97.2098 0.994637L89.0177 43.3368H98.595L104.642 12.167L115.124 43.3368H126.846L135.038 0.994637H125.461L119.414 32.1644L108.932 0.994637H97.2098Z" fill="white"/>
<path d="M189.542 11.3211L190.674 33.7367L200.487 11.3211H209.169L210.301 33.4972L220.115 11.3211H230.226L215.357 43.8422H203.998L202.867 21.4927L193.053 43.8422H181.694L179.431 11.3211H189.542Z" fill="white"/>
<path fill-rule="evenodd" clip-rule="evenodd" d="M178.898 10.8238H190.015L191.064 31.6051L200.162 10.8238H209.642L210.691 31.3865L219.791 10.8238H231L215.676 44.3396H203.525L202.476 23.6186L193.377 44.3396H181.23L178.898 10.8238ZM179.964 11.8184L182.158 43.3449H192.728L203.257 19.3669L204.471 43.3449H215.037L229.452 11.8184H220.438L209.911 35.608L208.697 11.8184H200.812L190.283 35.8683L189.069 11.8184H179.964Z" fill="white"/>
<path d="M224.716 53.5812H226.396L227.116 57.1437L229.008 53.5812H230.688L227.356 59.333C227.03 59.9187 226.684 60.322 226.348 60.5525C226.002 60.7925 225.599 60.9078 225.109 60.9078H224.139L224.351 59.8035H224.879C225.445 59.8035 225.685 59.6499 225.926 59.1794L225.993 59.0353L224.716 53.5812Z" fill="white"/>
<path d="M221.004 56.4716C220.303 56.4716 219.9 56.7117 219.814 57.1726C219.737 57.5951 219.986 57.8544 220.486 57.8544C221.129 57.8544 221.715 57.3454 221.84 56.6637L221.878 56.4716H221.004ZM223.693 55.8379L223.117 58.8338H221.427L221.571 58.056C220.995 58.6994 220.418 58.9682 219.612 58.9682C219.065 58.9682 218.652 58.8146 218.373 58.4977C218.104 58.1808 218.008 57.7679 218.104 57.259C218.344 56.0299 219.276 55.473 221.091 55.473H222.08L222.099 55.3385C222.204 54.8104 221.84 54.5704 220.956 54.5704C220.236 54.5704 219.593 54.724 219.007 55.0025L219.257 53.7253C220.015 53.5429 220.745 53.4565 221.475 53.4565C223.366 53.4565 224.019 54.1575 223.693 55.8379Z" fill="white"/>
<path d="M212.833 51.8337H215.828C217.605 51.8337 218.431 52.6595 218.152 54.1191C217.864 55.5883 216.721 56.4045 214.945 56.4045H213.754L213.284 58.8339H211.479L212.833 51.8337ZM214.388 53.1397L214.004 55.0985H215.003C215.694 55.0985 216.165 54.7433 216.289 54.1191C216.414 53.4949 216.078 53.1397 215.387 53.1397H214.388Z" fill="white"/>
<path d="M210.646 56.1932L210.55 56.6733H206.622C206.555 57.4511 206.968 57.8544 207.842 57.8544C208.543 57.8544 209.34 57.6431 210.194 57.2206L209.945 58.5169C209.09 58.8146 208.274 58.9682 207.477 58.9682C205.585 58.9682 204.663 57.9504 205.009 56.2124C205.172 55.3577 205.556 54.6856 206.171 54.1959C206.786 53.7061 207.544 53.4565 208.447 53.4565C209.273 53.4565 209.887 53.7061 210.281 54.2055C210.684 54.6952 210.809 55.3577 210.646 56.1932ZM209.023 55.6362C209.148 54.9929 208.831 54.5704 208.226 54.5704C207.573 54.5704 207.083 54.9448 206.843 55.6362H209.023Z" fill="white"/>
<path d="M203.014 51.5359H204.694L203.283 58.8337H201.602L203.014 51.5359Z" fill="white"/>
<path d="M197.927 56.4716C197.226 56.4716 196.822 56.7117 196.736 57.1726C196.659 57.5951 196.909 57.8544 197.408 57.8544C198.051 57.8544 198.637 57.3454 198.762 56.6637L198.8 56.4716H197.927ZM200.615 55.8379L200.039 58.8338H198.349L198.493 58.056C197.917 58.6994 197.341 58.9682 196.534 58.9682C195.987 58.9682 195.574 58.8146 195.295 58.4977C195.027 58.1808 194.931 57.7679 195.027 57.259C195.267 56.0299 196.198 55.473 198.013 55.473H199.002L199.021 55.3385C199.127 54.8104 198.762 54.5704 197.879 54.5704C197.158 54.5704 196.515 54.724 195.929 55.0025L196.179 53.7253C196.937 53.5429 197.667 53.4565 198.397 53.4565C200.289 53.4565 200.942 54.1575 200.615 55.8379Z" fill="white"/>
<path d="M189.214 53.5812H190.894L191.49 57.2109L193.506 53.5812H195.187L192.104 58.8337H190.261L189.214 53.5812Z" fill="white"/>
<path d="M182.308 59.3234C181.943 59.9475 181.626 60.3508 181.348 60.5429C181.079 60.7349 180.753 60.831 180.369 60.831H179.677L179.821 60.1108H180.33C180.57 60.1108 180.762 60.0532 180.906 59.9379C181.06 59.8323 181.262 59.5634 181.502 59.1409L181.732 58.7472L180.618 53.5812H181.53L182.375 57.691L184.814 53.5812H185.727L182.308 59.3234Z" fill="white"/>
<path d="M178.402 56.2122C178.45 55.9722 178.47 55.7513 178.47 55.5401C178.47 54.6759 178.066 54.1765 177.327 54.1765C176.415 54.1765 175.704 54.9447 175.464 56.2122C175.416 56.4619 175.387 56.6924 175.387 56.894C175.387 57.7486 175.8 58.2479 176.53 58.2479C177.442 58.2479 178.153 57.4797 178.402 56.2122ZM175.819 54.3782C176.29 53.754 176.904 53.4564 177.673 53.4564C178.316 53.4564 178.787 53.706 179.084 54.2149C179.276 54.551 179.372 54.9447 179.372 55.4152C179.372 55.6649 179.353 55.9242 179.295 56.2122C179.132 57.038 178.796 57.7006 178.306 58.2095C177.817 58.7185 177.25 58.9681 176.607 58.9681C175.839 58.9681 175.339 58.6704 175.099 58.0463L174.955 58.8337H174.091L175.503 51.5359H176.367L175.819 54.3782Z" fill="white"/>
<path d="M159.605 9.44702C147.925 9.44702 139.656 16.0933 137.483 27.2721C135.311 38.451 141.027 45.0973 152.708 45.0973C164.388 45.0973 172.657 38.451 174.83 27.2721C177.002 16.0933 171.286 9.44702 159.605 9.44702ZM144.695 36.0567C143.596 36.354 142.464 35.6935 142.167 34.5789L140.878 29.7738C140.581 28.6592 141.225 27.5033 142.324 27.2061C143.423 26.9089 144.554 27.5694 144.852 28.6839L146.14 33.4891C146.438 34.6036 145.793 35.7595 144.695 36.0567ZM152.063 37.6749C150.965 37.9722 149.833 37.3117 149.535 36.1971L145.826 22.3845C145.529 21.2699 146.173 20.114 147.272 19.8168C148.371 19.5196 149.502 20.1801 149.8 21.2947L153.509 35.1073C153.806 36.2219 153.162 37.3777 152.063 37.6749ZM157.639 33.3735C156.541 33.6789 155.409 33.0102 155.111 31.8956L152.741 23.0863C152.443 21.9717 153.088 20.8158 154.186 20.5186C155.285 20.2131 156.417 20.8818 156.714 21.9964L159.085 30.8058C159.382 31.9204 158.738 33.0762 157.639 33.3735ZM164.9 33.9844C163.802 34.2816 162.67 33.6212 162.373 32.5066L158.664 18.694C158.366 17.5794 159.01 16.4235 160.109 16.1263C161.208 15.8291 162.34 16.4896 162.637 17.6041L166.346 31.4167C166.643 32.5313 165.999 33.6872 164.9 33.9844ZM169.997 27.5198C168.898 27.817 167.767 27.1566 167.469 26.042L166.181 21.2369C165.883 20.1223 166.528 18.9664 167.626 18.6692C168.725 18.372 169.857 19.0325 170.154 20.147L171.443 24.9522C171.74 26.0667 171.096 27.2226 169.997 27.5198Z" fill="white"/>
</svg>
