<svg width="42" height="42" viewBox="0 0 42 42" fill="none" xmlns="http://www.w3.org/2000/svg">
<path d="M28.42 13.58C28.2341 13.3926 28.0129 13.2438 27.7692 13.1423C27.5254 13.0407 27.264 12.9884 27 12.9884C26.736 12.9884 26.4746 13.0407 26.2309 13.1423C25.9871 13.2438 25.7659 13.3926 25.58 13.58L21 18.18L16.42 13.58C16.0434 13.2034 15.5326 12.9919 15 12.9919C14.4674 12.9919 13.9566 13.2034 13.58 13.58C13.2034 13.9566 12.9918 14.4674 12.9918 15C12.9918 15.5326 13.2034 16.0434 13.58 16.42L18.18 21L13.58 25.58C13.3925 25.766 13.2438 25.9872 13.1422 26.2309C13.0407 26.4746 12.9884 26.736 12.9884 27C12.9884 27.2641 13.0407 27.5255 13.1422 27.7692C13.2438 28.0129 13.3925 28.2341 13.58 28.42C13.7659 28.6075 13.9871 28.7563 14.2309 28.8578C14.4746 28.9594 14.736 29.0116 15 29.0116C15.264 29.0116 15.5254 28.9594 15.7692 28.8578C16.0129 28.7563 16.2341 28.6075 16.42 28.42L21 23.82L25.58 28.42C25.7659 28.6075 25.9871 28.7563 26.2309 28.8578C26.4746 28.9594 26.736 29.0116 27 29.0116C27.264 29.0116 27.5254 28.9594 27.7692 28.8578C28.0129 28.7563 28.2341 28.6075 28.42 28.42C28.6075 28.2341 28.7563 28.0129 28.8578 27.7692C28.9593 27.5255 29.0116 27.2641 29.0116 27C29.0116 26.736 28.9593 26.4746 28.8578 26.2309C28.7563 25.9872 28.6075 25.766 28.42 25.58L23.82 21L28.42 16.42C28.6075 16.2341 28.7563 16.0129 28.8578 15.7692C28.9593 15.5255 29.0116 15.2641 29.0116 15C29.0116 14.736 28.9593 14.4746 28.8578 14.2309C28.7563 13.9872 28.6075 13.766 28.42 13.58ZM35.14 6.86004C33.2951 4.94983 31.0882 3.42619 28.6481 2.37801C26.208 1.32983 23.5836 0.778104 20.928 0.755028C18.2724 0.731951 15.6389 1.23799 13.1809 2.2436C10.723 3.24922 8.48996 4.73428 6.61211 6.61214C4.73425 8.48999 3.24919 10.723 2.24357 13.181C1.23795 15.6389 0.731921 18.2725 0.754997 20.9281C0.778073 23.5836 1.3298 26.208 2.37798 28.6481C3.42616 31.0882 4.9498 33.2951 6.86001 35.14C8.70494 37.0502 10.9118 38.5739 13.3519 39.6221C15.792 40.6702 18.4164 41.222 21.072 41.245C23.7276 41.2681 26.3612 40.7621 28.8191 39.7565C31.277 38.7509 33.5101 37.2658 35.3879 35.3879C37.2658 33.5101 38.7508 31.277 39.7564 28.8191C40.7621 26.3612 41.2681 23.7276 41.245 21.072C41.2219 18.4164 40.6702 15.792 39.622 13.3519C38.5739 10.9119 37.0502 8.70497 35.14 6.86004ZM32.32 32.32C29.7041 34.9389 26.2611 36.5697 22.5776 36.9347C18.8941 37.2996 15.198 36.3762 12.1191 34.3216C9.04008 32.267 6.76872 29.2085 5.69195 25.667C4.61518 22.1256 4.79962 18.3203 6.21383 14.8996C7.62805 11.4789 10.1846 8.65433 13.4478 6.90716C16.711 5.15999 20.4791 4.5983 24.11 5.31778C27.7409 6.03727 31.0101 7.99342 33.3605 10.853C35.7109 13.7125 36.9971 17.2985 37 21C37.0071 23.1026 36.5972 25.1857 35.7939 27.1288C34.9905 29.0719 33.8098 30.8363 32.32 32.32Z" fill="#DF0707"/>
</svg>
